<svg xmlns="http://www.w3.org/2000/svg" width="545.915" height="120.735" viewBox="0 0 545.915 120.735">
  <g id="Group_184" data-name="Group 184" transform="translate(-687.234 -1711.55)">
    <g id="Group_7" data-name="Group 7" transform="translate(-12370.394)">
      <text id="A_Product_of" data-name="A Product of" transform="translate(13129.236 1826.285)" fill="#1d1d1b" font-size="23.929" font-family="KelsonSans-Regular, Kelson Sans"><tspan x="0" y="0">A Product of</tspan></text>
      <g id="Group_6" data-name="Group 6">
        <path id="Path_12" data-name="Path 12" d="M13470.912,1824v3.283h4.975a.588.588,0,0,0,.186-.038h8.959v-5.607h-8.51v-2.9h8.51v-5.607h-8.51v-3.272h8.51v-5.233h-14.119Z" fill="#1d1d1b"/>
        <path id="Path_13" data-name="Path 13" d="M13462.969,1824v3.284h5.609v-22.658h-5.609Z" fill="#1d1d1b"/>
        <path id="Path_14" data-name="Path 14" d="M13396.6,1827.372a6.926,6.926,0,0,0,5.642-6.046,31.68,31.68,0,0,0,.138-4.628v-12.071h-5.608c0,4.893.027,9.788,0,14.682-.011,1.583-.519,2.928-2.222,3.239a4.3,4.3,0,0,1-3.067-.439,3.026,3.026,0,0,1-1.057-2.6c-.043-2.192,0-4.389,0-6.583v-8.3h-5.609v10.26c0,3.573-.607,8.016,2.2,10.735,2.509,2.2,6.451,2.426,9.586,1.75" fill="#1d1d1b"/>
        <path id="Path_15" data-name="Path 15" d="M13429.9,1827.284h5.609V1809.73h5.663v-5.1h-17v5.105h5.725v17.553h0" fill="#1d1d1b"/>
        <path id="Path_16" data-name="Path 16" d="M13262.2,1804.28a1.908,1.908,0,1,1-1.972,1.9,1.924,1.924,0,0,1,1.96-1.9Zm-.022.382a1.52,1.52,0,0,0,.022,3.039,1.454,1.454,0,0,0,1.45-1.519,1.469,1.469,0,0,0-1.462-1.52Zm-.291,2.505h-.439v-1.89a3.663,3.663,0,0,1,.73-.07,1.078,1.078,0,0,1,.66.151.519.519,0,0,1,.187.406.49.49,0,0,1-.4.453v.023c.187.057.291.209.349.463a1.214,1.214,0,0,0,.14.464h-.477a1.483,1.483,0,0,1-.149-.452c-.035-.209-.152-.3-.4-.3h-.209Zm.013-1.066h.209c.243,0,.439-.082.439-.279,0-.174-.127-.29-.405-.29a1.084,1.084,0,0,0-.243.023Z" fill="#1d1d1b"/>
        <path id="Path_17" data-name="Path 17" d="M13512.98,1806.637a.952.952,0,0,0,.18.485,1.048,1.048,0,0,0,.841.291,1.8,1.8,0,0,0,.579-.077.55.55,0,0,0,.421-.547.406.406,0,0,0-.206-.363,2.221,2.221,0,0,0-.656-.22l-.511-.113a3.217,3.217,0,0,1-1.036-.361,1.153,1.153,0,0,1-.476-1.022,1.357,1.357,0,0,1,.466-1.054,1.985,1.985,0,0,1,1.372-.42,2.106,2.106,0,0,1,1.289.4,1.407,1.407,0,0,1,.56,1.148h-.947a.677.677,0,0,0-.383-.6,1.3,1.3,0,0,0-.588-.119,1.111,1.111,0,0,0-.623.154.486.486,0,0,0-.232.429.4.4,0,0,0,.229.378,2.934,2.934,0,0,0,.627.2l.829.195a2.12,2.12,0,0,1,.816.343,1.158,1.158,0,0,1,.422.965,1.352,1.352,0,0,1-.5,1.074,2.1,2.1,0,0,1-1.413.427,2.3,2.3,0,0,1-1.466-.42,1.393,1.393,0,0,1-.535-1.159Z" fill="#1d1d1b"/>
        <rect id="Rectangle_1" data-name="Rectangle 1" width="0.98" height="4.722" transform="translate(13516.564 1803.373)" fill="#1d1d1b"/>
        <path id="Path_18" data-name="Path 18" d="M13518.451,1803.373h1.033l1.875,3.293v-3.293h.92v4.722h-.986l-1.922-3.35v3.35h-.92Z" fill="#1d1d1b"/>
        <path id="Path_19" data-name="Path 19" d="M13523.656,1803.867a2.2,2.2,0,0,1,3.175.2,1.721,1.721,0,0,1,.324.881h-.987a1.333,1.333,0,0,0-.242-.512.973.973,0,0,0-.782-.308.961.961,0,0,0-.83.435,2.113,2.113,0,0,0-.3,1.227,1.865,1.865,0,0,0,.321,1.191,1.009,1.009,0,0,0,.816.4.923.923,0,0,0,.773-.339,1.512,1.512,0,0,0,.245-.547h.979a2.127,2.127,0,0,1-.647,1.255,1.88,1.88,0,0,1-1.335.483,2.006,2.006,0,0,1-1.585-.652,2.64,2.64,0,0,1-.576-1.8,2.6,2.6,0,0,1,.656-1.906" fill="#1d1d1b"/>
        <path id="Path_20" data-name="Path 20" d="M13531.435,1804.209h-2.5v1h2.293v.82h-2.293v1.214h2.614v.849h-3.579v-4.721h3.464Z" fill="#1d1d1b"/>
        <path id="Path_21" data-name="Path 21" d="M13512.224,1811.452v-.621a4.135,4.135,0,0,0,.6-.058.845.845,0,0,0,.447-.244.809.809,0,0,0,.18-.332.822.822,0,0,0,.035-.186h.762v4.644h-.935v-3.2Z" fill="#1d1d1b"/>
        <path id="Path_22" data-name="Path 22" d="M13516.044,1810.435a1.592,1.592,0,0,1,2.574.475,3.677,3.677,0,0,1,.224,1.4,4.008,4.008,0,0,1-.215,1.408,1.5,1.5,0,0,1-1.5,1.072,1.54,1.54,0,0,1-.939-.309,1.223,1.223,0,0,1-.477-.9h.91a.553.553,0,0,0,.172.334.545.545,0,0,0,.375.127.651.651,0,0,0,.635-.5,2.9,2.9,0,0,0,.125-.805.954.954,0,0,1-.266.24,1.208,1.208,0,0,1-.631.155,1.441,1.441,0,0,1-.984-.383,1.4,1.4,0,0,1-.429-1.1,1.7,1.7,0,0,1,.431-1.209m1.536,1.843a.751.751,0,0,0,.311-.688.968.968,0,0,0-.185-.625.607.607,0,0,0-.5-.23.624.624,0,0,0-.4.131.83.83,0,0,0-.263.7.968.968,0,0,0,.168.62.7.7,0,0,0,.873.1" fill="#1d1d1b"/>
        <path id="Path_23" data-name="Path 23" d="M13519.416,1812.659a1.127,1.127,0,0,1,.517-.477,1.087,1.087,0,0,1-.438-.484,1.371,1.371,0,0,1-.1-.489,1.145,1.145,0,0,1,.384-.864,1.807,1.807,0,0,1,2.156,0,1.141,1.141,0,0,1,.383.864,1.368,1.368,0,0,1-.1.489.932.932,0,0,1-.437.452,1.305,1.305,0,0,1,.518.509,1.448,1.448,0,0,1,.174.708,1.32,1.32,0,0,1-.435,1,1.69,1.69,0,0,1-1.214.412,1.574,1.574,0,0,1-1.18-.412,1.377,1.377,0,0,1-.4-1,1.429,1.429,0,0,1,.177-.708m.95,1.18a.733.733,0,0,0,.982,0,.753.753,0,0,0,.178-.532.737.737,0,0,0-.182-.54.739.739,0,0,0-.976,0,.891.891,0,0,0,0,1.072m.057-2.115a.572.572,0,0,0,.433.16.565.565,0,0,0,.432-.16.577.577,0,0,0,.153-.413.6.6,0,0,0-.153-.431.582.582,0,0,0-.432-.155.538.538,0,0,0-.588.586.567.567,0,0,0,.155.413" fill="#1d1d1b"/>
        <path id="Path_24" data-name="Path 24" d="M13523.17,1811.452v-.621a4.1,4.1,0,0,0,.6-.058.841.841,0,0,0,.447-.244.8.8,0,0,0,.18-.332.822.822,0,0,0,.035-.186h.762v4.644h-.935v-3.2Z" fill="#1d1d1b"/>
        <path id="Path_25" data-name="Path 25" d="M13281.062,1818.927a7.643,7.643,0,0,0,3.027-6.053,7.986,7.986,0,0,0-1.926-5.921c-2.554-2.59-6.658-2.106-10-2.106h-4.576l-.011,0-.618,0v22.676h5.61a.008.008,0,0,0,.007-.008v-7.159h3.1q.929,2.673,1.859,5.365l.619,1.8h4.975v0h1.162l-.653-1.721q-1.292-3.441-2.574-6.879m-8.486-3.559v-5.533h2.918a3.128,3.128,0,0,1,1.949.435,3.08,3.08,0,0,1,.907,2.931,2.727,2.727,0,0,1-.738,1.6,2.3,2.3,0,0,1-1.646.569Z" fill="#1d1d1b"/>
        <path id="Path_26" data-name="Path 26" d="M13325.858,1816.191q2.25-5.195,4.515-10.387l0-.015.4-.942h-1.541l-4,0h-.779l-.421,1.1-1.866,4.826c-.412,1.066-.812,2.131-1.223,3.2h-.013l-.072.182h-1.768v-9.3s0,0-.007,0h-5.6v22.676h5.605v-8.341h1.938q1.28,3.057,2.563,6.114l.933,2.227h6.4l-.752-1.68q-2.165-4.83-4.313-9.652" fill="#1d1d1b"/>
        <path id="Path_27" data-name="Path 27" d="M13357.428,1819.532q-1.792-6.123-3.586-12.245-.39-1.332-.781-2.667h-8.444V1827.3h5.612V1812.27q1.871,6.16,3.74,12.319.412,1.352.821,2.706h8.251V1804.62h-5.613Z" fill="#1d1d1b"/>
        <path id="Path_28" data-name="Path 28" d="M13378.91,1805.732c-2.337-1.162-4.977-1.114-7.52-1.114h-6.259V1827.3h.688a80.889,80.889,0,0,0,9.408-.122c2.772-.339,5.267-1.537,6.416-4.213,1.188-2.76,1.176-6.162,1.019-9.1-.157-3.147-.775-6.464-3.753-8.123m-1.961,11.017c-.049,1.659-.025,3.693-1.381,4.867a5.094,5.094,0,0,1-3.2.63h-1.622v-12.579h1.961c1.416,0,3.147.036,3.8,1.525a7.161,7.161,0,0,1,.411,2.374c.061,1.065.061,2.13.025,3.183" fill="#1d1d1b"/>
        <path id="Path_29" data-name="Path 29" d="M13308.581,1804.852h-7.021q-1.639,6.763-3.277,13.524-1.641-6.762-3.278-13.524h-8.531v22.675h5.613v-14.136c1.179,4.4,2.64,9.807,3.8,14.132h0c1.907,0,2.9,0,4.807,0h0c1.158-4.322,2.605-9.735,3.785-14.132v14.134h5.613v-22.675h-1.51Z" fill="#1d1d1b"/>
        <path id="Path_30" data-name="Path 30" d="M13337.254,1804.621h-.635V1827.3h5.613v-22.675h-4.979Z" fill="#1d1d1b"/>
        <path id="Path_31" data-name="Path 31" d="M13457.614,1818.74a7.647,7.647,0,0,0,3.026-6.054,7.987,7.987,0,0,0-1.925-5.92c-2.555-2.591-6.659-2.106-10-2.106h-4.576l-.012,0-.618,0v22.675h5.611a.007.007,0,0,0,.007-.007v-7.159h3.1c.619,1.781,1.239,3.574,1.859,5.365l.62,1.8h4.973v0h1.163l-.653-1.72q-1.295-3.441-2.574-6.879m-8.487-3.559v-5.534h2.918a3.122,3.122,0,0,1,1.949.436,3.084,3.084,0,0,1,.909,2.93,2.735,2.735,0,0,1-.74,1.6,2.306,2.306,0,0,1-1.646.57Z" fill="#1d1d1b"/>
        <g id="Group_3" data-name="Group 3">
          <g id="Group_2" data-name="Group 2">
            <path id="Path_32" data-name="Path 32" d="M13417.082,1813.024v-1.4a2.5,2.5,0,0,0-2.711-2.191h-1.7a1.5,1.5,0,0,0-1.65,1.291,1.841,1.841,0,0,0,1.049,1.568l5.105,2.208c3.313,1.316,4.907,3.239,5,6.052a6.146,6.146,0,0,1-2.595,5.141,8.568,8.568,0,0,1-5.055,1.924h-1.81c-4.409,0-7.865-3.072-7.865-7v-1.906h5.386v1.906a2.272,2.272,0,0,0,2.479,2.194h1.81a3.737,3.737,0,0,0,1.61-.811,1.582,1.582,0,0,0,.654-1.319c-.021-.636-.032-1.1-1.842-1.813l-.072-.029-5.385-2.332a6.6,6.6,0,0,1-3.852-5.785c0-3.36,3.157-6.094,7.036-6.094h1.7c4.464,0,8.1,3.136,8.1,6.994v1.4Z" fill="#1d1d1b"/>
          </g>
        </g>
        <g id="Group_5" data-name="Group 5">
          <g id="Group_4" data-name="Group 4">
            <path id="Path_33" data-name="Path 33" d="M13499.213,1813.024v-1.4a2.5,2.5,0,0,0-2.711-2.191h-1.7a1.5,1.5,0,0,0-1.649,1.291,1.842,1.842,0,0,0,1.048,1.568l5.106,2.208c3.313,1.316,4.907,3.239,4.994,6.052a6.144,6.144,0,0,1-2.595,5.141,8.568,8.568,0,0,1-5.054,1.924h-1.811c-4.409,0-7.865-3.072-7.865-7v-1.906h5.387v1.906a2.272,2.272,0,0,0,2.479,2.194h1.811a3.74,3.74,0,0,0,1.609-.811,1.577,1.577,0,0,0,.654-1.319c-.02-.636-.032-1.1-1.842-1.813l-.071-.029-5.386-2.332a6.6,6.6,0,0,1-3.851-5.785c0-3.36,3.157-6.094,7.035-6.094h1.7c4.465,0,8.1,3.136,8.1,6.994v1.4Z" fill="#1d1d1b"/>
          </g>
        </g>
      </g>
    </g>
    <g id="Group_17" data-name="Group 17" transform="translate(-12370.394)">
      <g id="Group_16" data-name="Group 16">
        <path id="Path_43" data-name="Path 43" d="M13078.127,1717.575a1.1,1.1,0,0,1,.243-.486,2.787,2.787,0,0,1,1.145-.844,1.758,1.758,0,0,1,.64-.134h9.606a1.606,1.606,0,0,1,1.09.4,4.794,4.794,0,0,1,.676.7l.938,2.141,19.707,50.821a1.108,1.108,0,0,1-.113,1.22,1.826,1.826,0,0,1-1.426.468h-10.773a2.349,2.349,0,0,1-1.332-.318,2.064,2.064,0,0,1-.733-1.068q-.751-1.914-1.464-3.813t-1.426-3.809h-19.934q-.71,1.917-1.441,3.809c-.489,1.263-.973,2.537-1.446,3.813a1.88,1.88,0,0,1-1.914,1.386H13059.1a1.837,1.837,0,0,1-1.182-.374.888.888,0,0,1-.17-1.126Zm6.832,16.066q-.713,1.914-1.446,4.13t-1.445,4.466q-.712,2.253-1.444,4.448t-1.446,4.11h11.523Z" fill="#1d1d1b"/>
        <path id="Path_44" data-name="Path 44" d="M13116.327,1717.728a1.657,1.657,0,0,1,.45-1.166,1.606,1.606,0,0,1,1.239-.487h11.109a1.752,1.752,0,0,1,1.163.449,1.609,1.609,0,0,1,.563,1.2v40.837h20.646a1.661,1.661,0,0,1,1.164.449,1.61,1.61,0,0,1,.488,1.241v9.87a1.783,1.783,0,0,1-.435,1.165,1.584,1.584,0,0,1-1.218.561h-33.52a1.459,1.459,0,0,1-1.651-1.65Z" fill="#1d1d1b"/>
        <path id="Path_45" data-name="Path 45" d="M13199.569,1720.166a2.389,2.389,0,0,1,.938.976,1.553,1.553,0,0,1-.114,1.426l-6.344,9.01a1.47,1.47,0,0,1-.882.731,1.656,1.656,0,0,1-1.145-.321,14.348,14.348,0,0,0-4.053-2.137,14.517,14.517,0,0,0-4.693-.751,13.607,13.607,0,0,0-10.135,4.352,14.825,14.825,0,0,0-2.928,4.731,15.868,15.868,0,0,0-1.051,5.78,15.7,15.7,0,0,0,1.051,5.762,14.662,14.662,0,0,0,2.928,4.694,13.68,13.68,0,0,0,10.135,4.334,14.617,14.617,0,0,0,8.821-2.928,1.725,1.725,0,0,1,1.125-.337,1.528,1.528,0,0,1,.9.675l6.418,9.233a1.486,1.486,0,0,1,.114,1.39,2.418,2.418,0,0,1-.939.937,29.9,29.9,0,0,1-7.6,3.661,28.141,28.141,0,0,1-8.576,1.294,28.415,28.415,0,0,1-14.488-3.9,29.112,29.112,0,0,1-10.286-10.267,27.9,27.9,0,0,1-2.889-6.83,28.806,28.806,0,0,1,2.889-22.146,29.183,29.183,0,0,1,4.486-5.836,27.927,27.927,0,0,1,5.8-4.486,29.329,29.329,0,0,1,6.851-2.89,29.105,29.105,0,0,1,16.14.224,29.316,29.316,0,0,1,7.526,3.623" fill="#1d1d1b"/>
        <path id="Path_46" data-name="Path 46" d="M13204.813,1744.038a28.485,28.485,0,0,1,3.906-14.507,29.048,29.048,0,0,1,4.486-5.836,28.089,28.089,0,0,1,5.8-4.486,29.376,29.376,0,0,1,6.855-2.89,28.75,28.75,0,0,1,15.268,0,29.284,29.284,0,0,1,6.876,2.89,28.512,28.512,0,0,1,10.311,10.322,29.85,29.85,0,0,1,2.893,6.869,28.831,28.831,0,0,1,0,15.277,29.1,29.1,0,0,1-2.893,6.831,28.226,28.226,0,0,1-4.488,5.78,29.338,29.338,0,0,1-5.822,4.486,28.289,28.289,0,0,1-6.876,2.89,28.719,28.719,0,0,1-22.123-2.89,29.076,29.076,0,0,1-10.289-10.266,27.919,27.919,0,0,1-2.894-6.831,28.448,28.448,0,0,1-1.013-7.639m14.525-.036a15.945,15.945,0,0,0,1.049,5.818,14.379,14.379,0,0,0,2.943,4.709,13.746,13.746,0,0,0,4.479,3.156,14.832,14.832,0,0,0,11.414,0,13.679,13.679,0,0,0,4.5-3.156,14.331,14.331,0,0,0,2.943-4.709,16.614,16.614,0,0,0,0-11.619,14.542,14.542,0,0,0-2.943-4.749,13.994,13.994,0,0,0-20.392,0,14.592,14.592,0,0,0-2.943,4.749,15.993,15.993,0,0,0-1.049,5.8" fill="#1d1d1b"/>
        <path id="Path_47" data-name="Path 47" d="M13266.27,1717.838a1.785,1.785,0,0,1,.433-1.256,1.565,1.565,0,0,1,1.22-.47h24.922a15.587,15.587,0,0,1,6.231,1.259,16.2,16.2,0,0,1,5.124,3.453,16.432,16.432,0,0,1,3.473,5.141,15.733,15.733,0,0,1,1.276,6.326,15.215,15.215,0,0,1-.881,5.234,14.269,14.269,0,0,1-2.5,4.336,18.3,18.3,0,0,1,4.275,5.894,17.032,17.032,0,0,1,1.578,7.244,16.233,16.233,0,0,1-1.313,6.476,17.65,17.65,0,0,1-3.546,5.364,16.786,16.786,0,0,1-5.219,3.661,15.07,15.07,0,0,1-6.288,1.351h-27.137a1.758,1.758,0,0,1-1.2-.4,1.535,1.535,0,0,1-.45-1.22Zm28.265,14.79a5.337,5.337,0,0,0-.412-2.1,5.393,5.393,0,0,0-2.975-2.908,6.022,6.022,0,0,0-2.3-.432h-8.054v10.885h7.942a6.744,6.744,0,0,0,2.353-.395,5.014,5.014,0,0,0,1.824-1.126,5.365,5.365,0,0,0,1.187-1.726,5.457,5.457,0,0,0,.433-2.195m1.989,21.808a6.248,6.248,0,0,0-.432-2.251,6.648,6.648,0,0,0-1.205-2.009,6.3,6.3,0,0,0-1.844-1.444,4.883,4.883,0,0,0-2.312-.565h-9.935V1760.7h9.935a5.042,5.042,0,0,0,2.293-.525,6.176,6.176,0,0,0,1.846-1.407,6.53,6.53,0,0,0,1.654-4.336" fill="#1d1d1b"/>
        <path id="Path_48" data-name="Path 48" d="M13315.456,1744.038a28.473,28.473,0,0,1,3.907-14.507,29.008,29.008,0,0,1,4.485-5.836,28.159,28.159,0,0,1,5.8-4.487,29.39,29.39,0,0,1,6.854-2.889,28.761,28.761,0,0,1,15.271,0,29.293,29.293,0,0,1,6.872,2.889,28.557,28.557,0,0,1,10.312,10.323,29.762,29.762,0,0,1,2.892,6.869,28.8,28.8,0,0,1,0,15.277,29.011,29.011,0,0,1-2.892,6.831,28.194,28.194,0,0,1-4.49,5.78,29.31,29.31,0,0,1-5.82,4.486,28.3,28.3,0,0,1-6.873,2.89,28.718,28.718,0,0,1-22.125-2.89,29.055,29.055,0,0,1-10.289-10.266,27.922,27.922,0,0,1-2.895-6.831,28.448,28.448,0,0,1-1.013-7.639m14.526-.036a15.925,15.925,0,0,0,1.049,5.818,14.363,14.363,0,0,0,2.943,4.709,13.713,13.713,0,0,0,4.481,3.156,13.958,13.958,0,0,0,5.7,1.141,14.1,14.1,0,0,0,5.716-1.141,13.742,13.742,0,0,0,4.5-3.156,14.356,14.356,0,0,0,2.94-4.709,16.573,16.573,0,0,0,0-11.62,14.574,14.574,0,0,0-2.94-4.748,13.995,13.995,0,0,0-20.394,0,14.582,14.582,0,0,0-2.943,4.748,15.982,15.982,0,0,0-1.049,5.8" fill="#1d1d1b"/>
        <path id="Path_49" data-name="Path 49" d="M13376.913,1717.763a1.743,1.743,0,0,1,.415-1.164,1.528,1.528,0,0,1,1.237-.487h12.274a2.586,2.586,0,0,1,1.089.263,2.386,2.386,0,0,1,.975.9q4.767,7.7,9.461,15.165t9.5,15.164V1717.54a1.826,1.826,0,0,1,.6-1.053,1.6,1.6,0,0,1,1.053-.375h10.7a2,2,0,0,1,1.314.431,1.5,1.5,0,0,1,.524,1.219v52.626a1.321,1.321,0,0,1-.452,1.108,1.941,1.941,0,0,1-1.235.356h-11.974a1.26,1.26,0,0,1-.867-.338,6.019,6.019,0,0,1-.786-.9q-4.992-8.258-9.871-16.328t-9.91-16.328V1770.2a1.437,1.437,0,0,1-1.725,1.65h-10.662a1.55,1.55,0,0,1-1.256-.469,1.709,1.709,0,0,1-.4-1.145Z" fill="#1d1d1b"/>
        <path id="Path_50" data-name="Path 50" d="M13479.449,1744.038a27.663,27.663,0,0,1-1.014,7.564,27.007,27.007,0,0,1-2.89,6.681,27.806,27.806,0,0,1-10.268,9.891,29.194,29.194,0,0,1-6.849,2.722,30.207,30.207,0,0,1-7.622.955h-18.5a2.4,2.4,0,0,1-1.2-.3,1.346,1.346,0,0,1-.523-1.276v-52.439a1.863,1.863,0,0,1,.43-1.276,1.643,1.643,0,0,1,1.3-.487h18.5a29.349,29.349,0,0,1,7.6.976,28.774,28.774,0,0,1,6.83,2.778,29.19,29.19,0,0,1,5.8,4.315,26.743,26.743,0,0,1,4.488,5.632,28.307,28.307,0,0,1,2.888,6.719,27.32,27.32,0,0,1,1.033,7.543m-34.346-14.488v28.865h3.153c.575,0,1.138-.02,1.69-.056s1.1-.081,1.649-.13a15.082,15.082,0,0,0,5.255-1.372,14.566,14.566,0,0,0,4.263-3,13.58,13.58,0,0,0,2.852-4.372A14.284,14.284,0,0,0,13465,1744a14.1,14.1,0,0,0-1.183-5.8,14.263,14.263,0,0,0-7.957-7.581,15.73,15.73,0,0,0-5.8-1.069Z" fill="#1d1d1b"/>
        <path id="Path_51" data-name="Path 51" d="M13486.653,1722.542a.15.15,0,0,1,.074-.186,1.477,1.477,0,0,0,.757-1.4,1.591,1.591,0,0,0-.461-1.183,1.571,1.571,0,0,0-1.183-.48h-1.553a.438.438,0,0,0-.331.129.45.45,0,0,0-.112.332v4.582a.482.482,0,0,0,.112.332.519.519,0,0,0,.331.11h.185a.459.459,0,0,0,.333-.11.419.419,0,0,0,.13-.332v-1.645a.134.134,0,0,1,.147-.146h.3c.073,0,.109.036.167.108l.664,1.776a.486.486,0,0,0,.518.349h.238c.259,0,.39-.092.39-.3a.657.657,0,0,0-.02-.2Zm-.461-1.017a.68.68,0,0,1-.5.184h-.61c-.093,0-.147-.038-.147-.146v-1.184a.135.135,0,0,1,.147-.148h.61a.7.7,0,0,1,.517.2.838.838,0,0,1,.183.555.746.746,0,0,1-.2.536" fill="#1d1d1b"/>
        <path id="Path_52" data-name="Path 52" d="M13490.735,1718.975a5.745,5.745,0,0,0-2.181-2.125,6.446,6.446,0,0,0-6.133,0,5.77,5.77,0,0,0-2.973,5.118,6.041,6.041,0,0,0,.794,3.084,5.631,5.631,0,0,0,2.179,2.18,6.318,6.318,0,0,0,6.133,0,5.626,5.626,0,0,0,2.181-2.181,6.049,6.049,0,0,0,.813-3.083,5.772,5.772,0,0,0-.812-2.993m-1.127,5.43a4.6,4.6,0,0,1-1.736,1.738,4.829,4.829,0,0,1-2.4.61,4.532,4.532,0,0,1-4.083-2.348,4.968,4.968,0,0,1-.608-2.437,4.636,4.636,0,0,1,.608-2.347,4.659,4.659,0,0,1,4.083-2.271,4.839,4.839,0,0,1,2.4.608,4.571,4.571,0,0,1,1.736,1.663,4.473,4.473,0,0,1,.629,2.347,4.791,4.791,0,0,1-.629,2.437" fill="#1d1d1b"/>
      </g>
      <text id="ALUMINUM_COMPOSITE_PANEL" data-name="ALUMINUM
COMPOSITE
PANEL" transform="translate(13503.543 1729.55)" font-size="15.74" font-family="GalaxiePolaris-Bold, Galaxie Polaris" font-weight="700"><tspan x="0" y="0">ALUMINUM</tspan><tspan x="0" y="18.888">COMPOSITE</tspan><tspan x="0" y="37.776">PANEL</tspan></text>
    </g>
  </g>
</svg>
