<?xml version="1.0" encoding="UTF-8"?>
<svg id="Layer_2" data-name="Layer 2" xmlns="http://www.w3.org/2000/svg" viewBox="0 0 312.78 82.15">
  <defs>
    <style>
      .cls-1 {
        fill: #1d1d1b;
      }
    </style>
  </defs>
  <g id="Layer_1-2" data-name="Layer 1">
    <g>
      <path class="cls-1" d="M93.92,23.59c.01-.08,.06-.16,.13-.26,.07-.09,.16-.18,.27-.26,.11-.08,.22-.14,.34-.19,.12-.05,.23-.07,.34-.07h5.09c.23,0,.42,.07,.58,.21,.16,.14,.28,.26,.36,.37l.5,1.13,10.43,26.9c.11,.27,.09,.48-.06,.65-.15,.17-.4,.25-.75,.25h-5.7c-.3,0-.54-.06-.71-.17-.17-.11-.3-.3-.39-.57-.27-.68-.52-1.35-.77-2.02-.25-.67-.5-1.34-.75-2.02h-10.55c-.25,.68-.51,1.35-.76,2.02-.26,.67-.51,1.34-.77,2.02-.17,.49-.51,.73-1.01,.73h-5.86c-.25,0-.46-.07-.63-.2-.17-.13-.2-.33-.09-.6l10.79-27.94Zm3.62,8.5c-.25,.68-.51,1.41-.77,2.19-.26,.78-.51,1.57-.77,2.36-.25,.8-.51,1.58-.76,2.35-.26,.78-.51,1.5-.77,2.18h6.1s-3.04-9.08-3.04-9.08Z"/>
      <path class="cls-1" d="M114.15,23.67c0-.24,.08-.44,.24-.62,.16-.17,.38-.26,.66-.26h5.88c.23,0,.43,.08,.62,.24,.19,.16,.29,.37,.3,.64v21.62s10.93,0,10.93,0c.24,0,.44,.08,.62,.24,.17,.16,.26,.38,.26,.66v5.22c0,.23-.08,.43-.23,.62-.15,.18-.37,.28-.64,.3h-17.74c-.58,0-.87-.29-.87-.87V23.67Z"/>
      <path class="cls-1" d="M158.21,24.96c.22,.13,.39,.3,.5,.52,.11,.21,.09,.46-.06,.75l-3.36,4.77c-.15,.23-.3,.35-.47,.39s-.37-.02-.61-.17c-.65-.49-1.36-.87-2.14-1.13-.78-.27-1.61-.4-2.48-.4-1.09,0-2.09,.2-3,.62-.91,.41-1.7,.97-2.36,1.69-.66,.72-1.18,1.55-1.55,2.5-.37,.95-.56,1.98-.56,3.06,0,1.09,.19,2.1,.56,3.05,.37,.95,.89,1.78,1.55,2.48,.66,.71,1.45,1.27,2.36,1.68,.91,.41,1.91,.62,3,.62,.87,0,1.71-.14,2.5-.41,.79-.27,1.52-.65,2.17-1.14,.24-.15,.44-.2,.6-.18,.16,.03,.32,.15,.48,.36l3.4,4.89c.14,.29,.17,.54,.06,.74-.11,.2-.27,.36-.5,.5-1.25,.83-2.59,1.48-4.02,1.94-1.44,.46-2.95,.68-4.54,.68-1.4,0-2.75-.18-4.04-.54-1.29-.36-2.5-.87-3.63-1.53-1.13-.66-2.15-1.45-3.07-2.37-.92-.92-1.71-1.94-2.37-3.06-.66-1.12-1.17-2.32-1.53-3.62-.36-1.29-.54-2.64-.54-4.04,0-1.4,.18-2.75,.54-4.04,.36-1.29,.87-2.5,1.53-3.64,.66-1.13,1.45-2.16,2.37-3.09,.92-.93,1.94-1.72,3.07-2.37,1.13-.66,2.33-1.17,3.63-1.53,1.29-.36,2.64-.55,4.04-.55,1.59,0,3.09,.22,4.5,.66,1.41,.44,2.74,1.08,3.98,1.92"/>
      <path class="cls-1" d="M160.99,37.6c0-1.4,.18-2.75,.54-4.04,.36-1.29,.87-2.5,1.53-3.64,.66-1.13,1.45-2.16,2.37-3.09,.92-.93,1.95-1.72,3.07-2.37,1.13-.66,2.34-1.17,3.63-1.53,1.29-.36,2.64-.55,4.05-.55s2.74,.18,4.04,.55c1.3,.36,2.51,.87,3.64,1.53,1.13,.66,2.15,1.45,3.08,2.37,.93,.93,1.72,1.96,2.38,3.09,.66,1.13,1.17,2.35,1.53,3.64,.36,1.29,.55,2.64,.55,4.04s-.18,2.75-.55,4.04c-.36,1.29-.88,2.5-1.53,3.62-.66,1.12-1.45,2.14-2.38,3.06-.93,.92-1.96,1.71-3.08,2.37-1.13,.66-2.34,1.17-3.64,1.53-1.3,.36-2.64,.54-4.04,.54s-2.75-.18-4.05-.54c-1.29-.36-2.5-.87-3.63-1.53-1.13-.66-2.15-1.45-3.07-2.37-.92-.92-1.71-1.94-2.37-3.06-.66-1.12-1.17-2.33-1.53-3.62-.36-1.29-.54-2.64-.54-4.04m7.69-.02c0,1.1,.18,2.13,.56,3.08,.37,.95,.89,1.78,1.56,2.49,.67,.71,1.46,1.27,2.37,1.67,.91,.4,1.92,.6,3.02,.6s2.11-.2,3.03-.6c.92-.4,1.71-.96,2.38-1.67,.67-.71,1.19-1.54,1.56-2.49,.37-.95,.56-1.98,.56-3.08s-.18-2.11-.56-3.07c-.37-.96-.89-1.8-1.56-2.51-.67-.71-1.46-1.28-2.38-1.69-.92-.41-1.93-.62-3.03-.62s-2.1,.2-3.02,.62c-.91,.41-1.7,.97-2.37,1.69-.67,.72-1.19,1.55-1.56,2.51-.37,.96-.56,1.98-.56,3.07"/>
      <path class="cls-1" d="M193.52,23.73c0-.28,.08-.5,.23-.66,.15-.17,.37-.25,.65-.25h13.19c1.17,0,2.27,.22,3.3,.67,1.03,.44,1.94,1.05,2.71,1.83,.78,.77,1.39,1.68,1.84,2.72,.45,1.04,.68,2.16,.68,3.35,0,.99-.16,1.92-.47,2.77-.31,.85-.75,1.62-1.32,2.3,.95,.87,1.71,1.92,2.26,3.12,.56,1.21,.84,2.48,.84,3.83,0,1.21-.23,2.35-.7,3.43-.46,1.08-1.09,2.03-1.88,2.84-.79,.82-1.71,1.46-2.76,1.94-1.05,.48-2.16,.72-3.33,.72h-14.37c-.27,0-.48-.07-.64-.21-.16-.14-.24-.35-.24-.65V23.73Zm14.96,7.83c0-.4-.07-.77-.22-1.11-.15-.34-.35-.65-.62-.91-.27-.26-.58-.47-.96-.63s-.78-.23-1.22-.23h-4.26s0,5.76,0,5.76h4.2c.45,0,.87-.07,1.25-.21,.38-.14,.7-.34,.97-.6,.27-.26,.48-.56,.63-.91,.15-.35,.23-.74,.23-1.16m1.05,11.54c0-.4-.08-.79-.23-1.19-.15-.4-.37-.75-.64-1.06-.27-.31-.6-.57-.98-.76-.38-.2-.79-.3-1.22-.3h-5.26s0,6.64,0,6.64h5.26c.44,0,.84-.09,1.21-.28,.37-.19,.7-.43,.98-.75,.28-.31,.49-.67,.65-1.06,.15-.4,.23-.81,.23-1.23"/>
      <path class="cls-1" d="M219.56,37.6c0-1.4,.18-2.75,.54-4.04,.36-1.29,.87-2.5,1.53-3.64,.66-1.13,1.45-2.16,2.37-3.09,.92-.93,1.95-1.72,3.07-2.37,1.13-.66,2.34-1.17,3.63-1.53,1.29-.36,2.64-.55,4.05-.55,1.39,0,2.74,.18,4.04,.55,1.3,.36,2.51,.87,3.64,1.53,1.13,.66,2.15,1.45,3.08,2.37,.93,.93,1.72,1.96,2.38,3.09,.66,1.13,1.17,2.35,1.53,3.64,.36,1.29,.55,2.64,.55,4.04s-.18,2.75-.55,4.04c-.36,1.29-.87,2.5-1.53,3.62-.66,1.12-1.45,2.14-2.38,3.06-.93,.92-1.95,1.71-3.08,2.37-1.13,.66-2.34,1.17-3.64,1.53-1.3,.36-2.64,.54-4.04,.54-1.4,0-2.75-.18-4.05-.54-1.29-.36-2.5-.87-3.63-1.53-1.13-.66-2.15-1.45-3.07-2.37-.92-.92-1.71-1.94-2.37-3.06-.66-1.12-1.17-2.33-1.53-3.62-.36-1.29-.54-2.64-.54-4.04m7.69-.02c0,1.1,.18,2.13,.56,3.08,.37,.95,.89,1.78,1.56,2.49,.67,.71,1.46,1.27,2.37,1.67,.91,.4,1.92,.6,3.01,.6s2.11-.2,3.03-.6c.92-.4,1.71-.96,2.38-1.67,.67-.71,1.19-1.54,1.56-2.49,.37-.95,.56-1.98,.56-3.08,0-1.09-.19-2.11-.56-3.07-.37-.96-.89-1.8-1.56-2.51-.67-.71-1.46-1.28-2.38-1.69-.92-.41-1.93-.62-3.03-.62s-2.1,.2-3.01,.62c-.91,.41-1.71,.97-2.37,1.69-.67,.72-1.19,1.55-1.56,2.51-.37,.96-.56,1.98-.56,3.07"/>
      <path class="cls-1" d="M252.1,23.69c0-.24,.07-.44,.22-.62,.15-.17,.36-.26,.66-.26h6.5c.19,0,.38,.05,.58,.14,.2,.09,.37,.25,.52,.48,1.68,2.72,3.35,5.39,5.01,8.03,1.66,2.64,3.33,5.31,5.03,8.03v-15.91c.05-.24,.16-.42,.32-.56,.16-.13,.34-.2,.56-.2h5.66c.28,0,.51,.08,.7,.23,.18,.15,.28,.37,.28,.65v27.86c0,.27-.08,.46-.24,.59-.16,.13-.38,.19-.65,.19h-6.34c-.17,0-.33-.06-.46-.18-.13-.12-.27-.28-.42-.48-1.76-2.91-3.5-5.8-5.23-8.64-1.72-2.85-3.47-5.73-5.25-8.64v17.07c0,.29-.07,.51-.2,.65-.13,.15-.37,.22-.71,.22h-5.64c-.3,0-.53-.08-.66-.25-.14-.17-.21-.37-.21-.61V23.69Z"/>
      <path class="cls-1" d="M306.38,37.6c0,1.41-.18,2.74-.54,4-.36,1.27-.87,2.44-1.53,3.54-.66,1.09-1.45,2.08-2.37,2.97-.92,.89-1.94,1.64-3.06,2.27-1.12,.62-2.33,1.1-3.62,1.44-1.3,.34-2.64,.51-4.03,.51h-9.8c-.24,0-.45-.05-.64-.16-.19-.11-.28-.33-.28-.68V23.73c0-.28,.08-.5,.23-.68,.15-.17,.38-.26,.69-.26h9.8c1.39,0,2.73,.17,4.03,.52,1.29,.34,2.5,.83,3.62,1.47,1.12,.64,2.14,1.4,3.07,2.28,.93,.89,1.72,1.88,2.38,2.98,.66,1.1,1.16,2.28,1.53,3.56,.36,1.27,.55,2.6,.55,3.99m-18.18-7.67v15.28s1.67,0,1.67,0c.3,0,.6-.01,.89-.03,.29-.02,.58-.04,.87-.07,.99-.08,1.92-.32,2.78-.73,.86-.4,1.61-.93,2.26-1.59,.64-.66,1.14-1.43,1.51-2.31,.36-.89,.55-1.86,.55-2.9,0-1.11-.21-2.14-.63-3.07-.42-.93-.98-1.74-1.7-2.42-.72-.68-1.55-1.21-2.51-1.59-.96-.38-1.98-.57-3.07-.57h-2.62Z"/>
      <path class="cls-1" d="M310.19,26.22s0-.08,.04-.1c.26-.15,.4-.39,.4-.74,0-.25-.08-.46-.24-.63-.16-.17-.37-.25-.63-.25h-.82c-.07,0-.13,.02-.18,.07-.04,.04-.06,.1-.06,.18v2.43c0,.07,.02,.14,.06,.18,.05,.04,.11,.06,.18,.06h.1c.08,0,.14-.02,.18-.06,.05-.04,.07-.11,.07-.18v-.87s.03-.08,.08-.08h.16s.06,.02,.09,.06l.35,.94c.04,.13,.14,.18,.27,.18h.13c.14,0,.21-.05,.21-.16,0-.04,0-.08-.01-.11l-.36-.92Zm-.24-.54c-.07,.07-.16,.1-.26,.1h-.32s-.08-.02-.08-.08v-.63s.03-.08,.08-.08h.32c.12,0,.2,.04,.27,.11,.06,.07,.1,.17,.1,.29,0,.12-.04,.21-.11,.28"/>
      <path class="cls-1" d="M312.35,24.33c-.28-.48-.66-.85-1.15-1.12-.49-.27-1.03-.41-1.63-.41s-1.12,.14-1.61,.41c-.49,.27-.87,.65-1.15,1.12-.28,.48-.42,1.01-.42,1.58s.14,1.14,.42,1.63c.28,.5,.66,.88,1.15,1.15,.49,.28,1.03,.42,1.61,.42s1.14-.14,1.63-.42c.49-.27,.87-.66,1.15-1.15,.28-.49,.43-1.04,.43-1.63s-.15-1.11-.43-1.58m-.6,2.87c-.22,.39-.53,.69-.92,.92-.38,.22-.81,.32-1.27,.32s-.88-.11-1.26-.32c-.37-.23-.67-.53-.9-.92-.22-.39-.32-.82-.32-1.29s.11-.87,.32-1.24c.22-.37,.53-.66,.9-.88,.38-.21,.8-.32,1.26-.32s.89,.11,1.27,.32c.39,.22,.69,.51,.92,.88,.23,.37,.33,.79,.33,1.24s-.11,.9-.33,1.29"/>
      <path class="cls-1" d="M70.49,13.67c0-1.68-.9-3.25-2.37-4.09L52.39,.62c-1.47-.84-3.28-.83-4.74,.04L2.31,27.6C.88,28.46,0,30,0,31.66v18.5c0,1.66,.89,3.2,2.31,4.06l45.98,27.27c1.45,.87,3.27,.89,4.74,.04l15.11-8.62c1.47-.84,2.39-2.4,2.37-4.1l-.03-55.14ZM17.57,55.2c0,.55-.43,.73-.98,.42l-1.36-.77-8.39-4.82c-.55-.31-.98-1-.98-1.54v-12.21c0-.54,.43-.73,.98-.41l9.74,5.59c.55,.31,.98,.99,.98,1.55v12.19Zm0-19.46c0,.6-.64,.97-1.16,.68l-7.96-4.53c-.47-.26-.41-.74,.11-1.06l7.83-4.61c.52-.31,1.17,.07,1.17,.67v8.84Zm15.5,28.71c0,.55-.43,.73-.98,.42l-1.36-.78-8.39-4.81c-.54-.32-.99-1-.99-1.55v-12.2c0-.55,.45-.73,.99-.42l9.74,5.59c.55,.32,.98,1,.98,1.55v12.2Zm0-18.74c0,.56-.43,.74-.98,.42l-1.36-.77-8.39-4.82c-.54-.31-.99-1-.99-1.54v-12.2c0-.55,.45-.74,.99-.42l9.74,5.58c.55,.32,.98,1.01,.98,1.56v12.19Zm0-19.45c0,.6-.64,.98-1.16,.68l-7.96-4.53c-.46-.27-.41-.75,.12-1.07l7.83-4.61c.52-.31,1.17,.07,1.17,.67v8.85Zm15.5,47.56c0,.55-.43,.73-.98,.42l-1.35-.78-8.39-4.81c-.56-.32-.99-1.01-.99-1.55v-12.2c0-.55,.43-.73,.99-.42l9.73,5.59c.55,.32,.98,1.01,.98,1.55v12.2Zm0-18.39c0,.55-.43,.73-.98,.42l-1.35-.77-8.39-4.82c-.56-.31-.99-1.01-.99-1.55v-12.2c0-.54,.43-.73,.99-.41l9.73,5.59c.55,.31,.98,1,.98,1.54v12.2Zm0-18.73c0,.55-.43,.73-.98,.41l-1.35-.77-8.39-4.82c-.56-.31-.99-.99-.99-1.54v-12.21c0-.54,.43-.72,.99-.41l9.73,5.59c.55,.31,.98,1,.98,1.55v12.2Zm1.48-17.28l-10.6-6.03c-.47-.27-.42-.75,.13-1.07l9.68-5.7c.54-.31,1.36-.35,1.84-.09l10.59,6.04c.47,.27,.42,.75-.12,1.06l-9.67,5.7c-.55,.33-1.37,.36-1.84,.09m14.57,47.68c0,.54-.44,1.23-.98,1.55l-9.74,5.59c-.54,.31-.98,.13-.98-.42v-12.2c0-.55,.44-1.23,.98-1.55l9.74-5.59c.54-.31,.98-.12,.98,.42v12.2Zm0-18.39c0,.55-.44,1.24-.98,1.55l-9.74,5.59c-.54,.32-.98,.13-.98-.42v-12.2c0-.54,.44-1.23,.98-1.54l9.74-5.6c.54-.31,.98-.11,.98,.42v12.2Zm0-18.73c0,.55-.44,1.23-.98,1.54l-9.74,5.59c-.54,.31-.98,.14-.98-.41v-12.2c0-.55,.44-1.24,.98-1.55l9.74-5.59c.54-.31,.98-.13,.98,.41v12.21Z"/>
    </g>
  </g>
</svg>